<?xml version="1.0" encoding="iso-8859-1"?>
<!-- Generator: Adobe Illustrator 19.0.0, SVG Export Plug-In . SVG Version: 6.00 Build 0)  -->
<svg version="1.1" id="Capa_1" xmlns="http://www.w3.org/2000/svg" xmlns:xlink="http://www.w3.org/1999/xlink" x="0px" y="0px"
	 viewBox="0 0 457.665 457.665" style="enable-background:new 0 0 457.665 457.665;" xml:space="preserve">
<g>
	<g>
		<path style="fill:#00EFD1;" d="M447.216,436.245v8.359H323.918v-8.359c-0.289-25.967,20.528-47.251,46.495-47.54
			c0.175-0.002,0.35-0.003,0.525-0.003h29.257c25.969-0.002,47.022,21.049,47.023,47.017
			C447.219,435.895,447.218,436.07,447.216,436.245z"/>
		<path style="fill:#00EFD1;" d="M385.567,300.408c17.312,0,31.347,14.034,31.347,31.347c0,17.312-14.035,31.347-31.347,31.347
			c-17.312,0-31.347-14.035-31.347-31.347c0,0,0,0,0,0C354.22,314.443,368.255,300.408,385.567,300.408z"/>
		<path style="fill:#00EFD1;" d="M290.482,148.898v8.359H167.184v-8.359c-0.289-25.967,20.528-47.251,46.495-47.54
			c0.175-0.002,0.35-0.003,0.525-0.003h29.257c25.969-0.002,47.022,21.049,47.023,47.018
			C290.485,148.548,290.484,148.723,290.482,148.898z"/>
		<path style="fill:#00EFD1;" d="M228.833,13.061c17.312,0,31.347,14.035,31.347,31.347s-14.035,31.347-31.347,31.347
			s-31.347-14.035-31.347-31.347S211.52,13.061,228.833,13.061z"/>
		<path style="fill:#00EFD1;" d="M133.747,436.245v8.359H10.449v-8.359c-0.289-25.967,20.528-47.251,46.495-47.54
			c0.175-0.002,0.35-0.003,0.525-0.003h29.257c25.969-0.002,47.022,21.049,47.023,47.018
			C133.75,435.895,133.749,436.07,133.747,436.245z"/>
		<path style="fill:#00EFD1;" d="M72.098,300.408c17.312,0,31.347,14.034,31.347,31.347c0,17.312-14.035,31.347-31.347,31.347
			s-31.347-14.035-31.347-31.347c0,0,0,0,0,0C40.751,314.443,54.786,300.408,72.098,300.408z"/>
	</g>
	<g>
		<path style="fill:#083863;" d="M228.833,86.204c-23.083,0-41.796-18.713-41.796-41.796s18.713-41.796,41.796-41.796
			s41.796,18.713,41.796,41.796S251.916,86.204,228.833,86.204z M228.833,23.51c-11.542,0-20.898,9.356-20.898,20.898
			s9.356,20.898,20.898,20.898c11.542,0,20.898-9.356,20.898-20.898S240.374,23.51,228.833,23.51
			C228.833,23.51,228.833,23.51,228.833,23.51z"/>
		<path style="fill:#083863;" d="M290.482,167.706H167.184c-5.771,0-10.449-4.678-10.449-10.449v-8.359
			c-0.001-31.825,25.646-57.705,57.469-57.992h29.257c31.824,0.287,57.471,26.167,57.469,57.992v8.359
			C300.931,163.028,296.252,167.706,290.482,167.706z M177.633,146.808h102.4c-1.097-19.466-17.076-34.76-36.571-35.004h-29.257
			C194.709,112.048,178.73,127.342,177.633,146.808L177.633,146.808z"/>
		<path style="fill:#083863;" d="M59.037,268.016c-5.771,0-10.449-4.678-10.449-10.449c-0.074-54.657,24.729-106.378,67.396-140.539
			c4.811-3.187,11.295-1.869,14.481,2.942c2.772,4.186,2.176,9.751-1.42,13.254c-37.684,30.269-59.592,76.007-59.559,124.343
			C69.486,263.338,64.808,268.016,59.037,268.016z"/>
		<path style="fill:#083863;" d="M228.833,437.812c-19.37,0.019-38.611-3.158-56.947-9.404c-5.229-1.648-8.132-7.223-6.484-12.451
			c0.065-0.206,0.136-0.409,0.214-0.61c1.749-5.467,7.581-8.5,13.061-6.792c32.897,10.955,68.458,10.955,101.355,0
			c5.331-1.758,11.098,1.01,13.061,6.269c1.742,5.616-1.253,11.608-6.792,13.584C267.798,434.702,248.378,437.879,228.833,437.812z"
			/>
		<path style="fill:#083863;" d="M398.629,268.016c-5.771,0-10.449-4.678-10.449-10.449c0.072-51.754-25.077-100.297-67.396-130.09
			c-4.761-3.318-5.93-9.868-2.612-14.629c3.318-4.761,9.868-5.93,14.629-2.612c47.724,33.913,76.133,88.785,76.278,147.331
			C409.078,263.338,404.399,268.016,398.629,268.016z"/>
		<path style="fill:#083863;" d="M72.098,373.551c-23.083,0-41.796-18.713-41.796-41.796c0-23.083,18.713-41.796,41.796-41.796
			s41.796,18.713,41.796,41.796C113.894,354.838,95.181,373.551,72.098,373.551z M72.098,310.857
			c-11.542,0-20.898,9.356-20.898,20.898c0,11.542,9.356,20.898,20.898,20.898s20.898-9.356,20.898-20.898
			C92.996,320.213,83.64,310.857,72.098,310.857z"/>
		<path style="fill:#083863;" d="M133.747,455.053H10.449C4.678,455.053,0,450.375,0,444.604v-8.359
			c-0.001-31.825,25.646-57.705,57.469-57.992h29.257c31.824,0.287,57.471,26.167,57.469,57.992v8.359
			C144.196,450.375,139.518,455.053,133.747,455.053C133.747,455.053,133.747,455.053,133.747,455.053z M20.898,434.155h102.4
			c-1.097-19.466-17.076-34.76-36.571-35.004H57.469C37.974,399.395,21.995,414.689,20.898,434.155z"/>
		<path style="fill:#083863;" d="M385.567,373.551c-23.083,0-41.796-18.713-41.796-41.796c0-23.083,18.713-41.796,41.796-41.796
			c23.083,0,41.796,18.713,41.796,41.796C427.363,354.838,408.651,373.551,385.567,373.551z M385.567,310.857
			c-11.542,0-20.898,9.356-20.898,20.898c0,11.542,9.356,20.898,20.898,20.898c11.542,0,20.898-9.356,20.898-20.898
			C406.465,320.213,397.109,310.857,385.567,310.857z"/>
		<path style="fill:#083863;" d="M447.216,455.053H323.918c-5.771,0-10.449-4.678-10.449-10.449v-8.359
			c-0.001-31.825,25.646-57.705,57.469-57.992h29.257c31.824,0.287,57.471,26.167,57.469,57.992v8.359
			C457.665,450.375,452.987,455.053,447.216,455.053L447.216,455.053z M334.367,434.155h102.4
			c-1.097-19.466-17.076-34.76-36.571-35.004h-29.257C351.443,399.395,335.464,414.689,334.367,434.155L334.367,434.155z"/>
	</g>
</g>
<g>
</g>
<g>
</g>
<g>
</g>
<g>
</g>
<g>
</g>
<g>
</g>
<g>
</g>
<g>
</g>
<g>
</g>
<g>
</g>
<g>
</g>
<g>
</g>
<g>
</g>
<g>
</g>
<g>
</g>
</svg>
