<svg id="Capa_1" enable-background="new 0 0 500.278 500.278" height="512" viewBox="0 0 500.278 500.278" width="512" xmlns="http://www.w3.org/2000/svg"><g><g fill="#62dbfb"><path d="m83.671 333.221c-45.72 0-82.79 37.07-82.79 82.79 0 20.107 7.171 38.535 19.088 52.879l108.051-5.865c-.215 3.664-.377 6.637-.377 6.637l19.756-.773 5.33-7.205c8.677-13.093 13.742-28.788 13.742-45.672 0-45.721-37.07-82.791-82.8-82.791z"/><path d="m416.598.004c-45.72 0-82.79 37.07-82.79 82.79 0 20.107 7.171 38.535 19.088 52.879l105.739-5.74-.679 7.43 22.371-1.693 5.331-7.205c8.676-13.093 13.742-28.788 13.742-45.672-.002-45.719-37.072-82.789-82.802-82.789z"/><path d="m153.433 129.051c8.677-13.093 13.742-28.788 13.742-45.672 0-45.72-37.07-82.79-82.8-82.79-45.72 0-82.79 37.07-82.79 82.79 0 20.107 7.171 38.535 19.088 52.879z"/></g><g><g><path d="m148.102 136.255c-15.18 18.28-38.1 29.923-63.72 29.923s-48.53-11.641-63.71-29.921c.53-25.61 16.18-47.489 38.37-57.119l19.57-9.04h14.24l16.87 9.04c22.2 9.63 37.84 31.507 38.38 57.117z" fill="#f9f7f8"/></g></g><path d="m123.447 87.277c-4.19-3.254-8.795-6-13.725-8.139l-2.984-1.599h-11.713v-6.277l-2.173-1.164h-14.24l-19.57 9.04c-22.19 9.63-37.84 31.509-38.37 57.119 4.917 5.921 10.648 11.139 17.016 15.497-.345-.399 8.834-38.576 23.358-49.979 2.163-1.698 4.997-2.354 7.645-1.611 4.994 1.401 10.255 2.154 15.691 2.154 15.012 0 28.713-5.698 39.065-15.041z" fill="#efedef"/><circle cx="84.384" cy="43.951" fill="#f9f7f8" r="43.367"/><path d="m64.063 43.951c0-19.959 13.488-36.758 31.844-41.807-3.671-1.01-7.532-1.56-11.523-1.56-23.951 0-43.367 19.416-43.367 43.367s19.416 43.367 43.367 43.367c3.992 0 7.852-.55 11.523-1.56-18.355-5.048-31.844-21.847-31.844-41.807z" fill="#efedef"/><g><g><path d="m147.399 468.888c-15.18 18.28-38.1 29.923-63.72 29.923s-48.53-11.641-63.71-29.921c.53-25.61 16.18-47.489 38.37-57.119l19.57-9.04h14.24l16.87 9.04c22.199 9.63 37.84 31.507 38.38 57.117z" fill="#f9f7f8"/></g></g><path d="m122.744 419.91c-4.19-3.254-8.795-6-13.725-8.139l-2.984-1.599h-11.714v-6.277l-2.173-1.164h-14.24l-19.57 9.04c-22.19 9.63-37.84 31.509-38.37 57.119 4.917 5.921 10.648 11.139 17.016 15.497-.345-.399 8.834-38.577 23.358-49.979 2.163-1.698 4.997-2.354 7.645-1.611 4.994 1.401 10.255 2.154 15.691 2.154 15.012 0 28.713-5.699 39.066-15.041z" fill="#efedef"/><circle cx="83.68" cy="376.584" fill="#f9f7f8" r="43.367"/><path d="m63.36 376.584c0-19.959 13.488-36.758 31.844-41.807-3.671-1.01-7.532-1.56-11.523-1.56-23.951 0-43.367 19.416-43.367 43.367s19.416 43.367 43.367 43.367c3.992 0 7.852-.55 11.523-1.56-18.356-5.049-31.844-21.848-31.844-41.807z" fill="#efedef"/><path d="m415.899 334.689c-45.72 0-82.79 37.07-82.79 82.79 0 20.107 7.171 38.535 19.088 52.879l108.051-5.865c-.215 3.664-.377 6.637-.377 6.637l19.756-.773 5.33-7.205c8.677-13.093 13.742-28.788 13.742-45.672 0-45.721-37.07-82.791-82.8-82.791z" fill="#62dbfb"/><g><g><path d="m479.627 470.355c-15.18 18.28-38.1 29.923-63.72 29.923s-48.53-11.641-63.71-29.921c.53-25.61 16.18-47.489 38.37-57.119l19.57-9.04h14.24l16.87 9.04c22.2 9.63 37.84 31.507 38.38 57.117z" fill="#f9f7f8"/></g></g><path d="m454.972 421.377c-4.19-3.254-8.795-6-13.725-8.139l-2.984-1.599h-11.713v-6.277l-2.173-1.164h-14.24l-19.57 9.04c-22.19 9.63-37.84 31.509-38.37 57.119 4.917 5.921 10.648 11.139 17.016 15.497-.345-.399 8.834-38.576 23.358-49.979 2.163-1.698 4.997-2.354 7.645-1.611 4.994 1.401 10.255 2.154 15.691 2.154 15.012 0 28.713-5.698 39.065-15.041z" fill="#efedef"/><circle cx="415.909" cy="378.051" fill="#f9f7f8" r="43.367"/><path d="m395.588 378.051c0-19.959 13.488-36.758 31.844-41.807-3.671-1.01-7.532-1.56-11.523-1.56-23.951 0-43.367 19.416-43.367 43.367s19.416 43.367 43.367 43.367c3.992 0 7.852-.55 11.523-1.56-18.355-5.048-31.844-21.847-31.844-41.807z" fill="#efedef"/><g><g><path d="m480.326 135.671c-15.18 18.28-38.1 29.923-63.72 29.923s-48.53-11.641-63.71-29.921c.53-25.61 16.18-47.489 38.37-57.119l19.57-9.04h14.24l16.87 9.04c22.199 9.63 37.84 31.507 38.38 57.117z" fill="#f9f7f8"/></g></g><path d="m455.671 86.692c-4.19-3.254-8.795-6-13.725-8.139l-2.984-1.599h-11.713v-6.277l-2.173-1.164h-14.24l-19.57 9.04c-22.19 9.63-37.84 31.509-38.37 57.119 4.917 5.921 10.648 11.139 17.016 15.497-.345-.399 8.834-38.576 23.358-49.979 2.163-1.698 4.997-2.354 7.645-1.611 4.994 1.401 10.255 2.154 15.691 2.154 15.011.001 28.712-5.698 39.065-15.041z" fill="#efedef"/><circle cx="416.607" cy="43.367" fill="#f9f7f8" r="43.367"/><path d="m396.287 43.367c0-19.959 13.488-36.758 31.844-41.807-3.672-1.01-7.533-1.56-11.524-1.56-23.951 0-43.367 19.416-43.367 43.367s19.416 43.367 43.367 43.367c3.992 0 7.852-.55 11.523-1.56-18.355-5.049-31.843-21.848-31.843-41.807z" fill="#efedef"/><circle cx="250.022" cy="250.008" fill="#99e6fc" r="168.795"/><g id="XMLID_142_"><g><circle cx="250.022" cy="250.008" fill="#f2fbff" r="128.79"/></g></g><g id="XMLID_143_"><g><g id="XMLID_157_"><g><path d="m327.132 351.656.77.94c-21.629 16.462-48.616 26.232-77.88 26.21-29.271-.022-56.262-9.737-77.88-26.21l.77-.94c13.14-15.95 31.38-26.89 51.64-30.97h50.94c10.13 2.04 19.75 5.79 28.49 11.03s16.58 11.96 23.15 19.94z" fill="#f37c7c"/></g></g><path d="m244.822 320.686h-20.27c-20.26 4.08-38.5 15.02-51.64 30.97l-.77.94c6.726 5.125 13.972 9.595 21.645 13.324l.214-.262c12.962-15.734 30.89-26.578 50.82-30.786v-14.186z" fill="#ee6161"/><path d="m275.493 320.674c0 14.067-11.404 25.471-25.471 25.471-14.067 0-25.471-11.404-25.471-25.471v-60.795h51.874z" fill="#fed2a4"/><path d="m306.442 161.318c-.01-2.59-3-4.03-5.04-2.43l-9.32 7.3h-58.33c-22.38 0-40.52 18.14-40.52 40.52v10.38l5.112 18.673h98.279l10.189-18.673z" fill="#aa9ea9"/><path d="m216.114 227.05v-10.38c0-22.38 18.14-40.52 40.52-40.52h49.906l-.098-14.832c-.01-2.59-3-4.03-5.04-2.43l-9.32 7.3h-58.33c-22.38 0-40.52 18.14-40.52 40.52v10.38l5.112 18.673h20.155z" fill="#9b8e99"/><path d="m250.022 317.668c9.013 0 17.635-1.685 25.59-4.731l.409-26.661h-37.522v-26.398h-13.947v60.232c0 13.927 10.942 25.696 24.865 26.027 2.635.063 5.219-.281 7.621-.964-10.676-3.034-18.539-12.852-18.539-24.5v-.088c0-2.025 1.77-3.566 3.783-3.344 2.542.281 5.124.427 7.74.427z" fill="#ffbd86"/><path d="m306.812 217.088v28.79c0 31.36-25.42 56.79-56.79 56.79s-56.79-25.43-56.79-56.79v-28.79z" fill="#ffe5c2"/><path d="m216.081 245.878v-28.79h-22.849v28.79c0 31.36 25.42 56.79 56.79 56.79 3.913 0 7.734-.396 11.425-1.15-25.892-5.288-45.366-28.192-45.366-55.64z" fill="#fed2a4"/></g></g></g></svg>